<svg width="54" height="57" viewBox="0 0 54 57" fill="none" xmlns="http://www.w3.org/2000/svg">
<path d="M28.3759 0.039999L47.8959 50.28C48.6426 52.2533 49.4959 53.5867 50.4559 54.28C51.4693 54.9733 52.4026 55.3467 53.2559 55.4V57C51.9759 56.8933 50.4559 56.84 48.6959 56.84C46.9893 56.7867 45.2559 56.76 43.4959 56.76C41.2559 56.76 39.1759 56.7867 37.2559 56.84C35.3359 56.84 33.7893 56.8933 32.6159 57V55.4C35.3359 55.2933 37.0426 54.84 37.7359 54.04C38.4826 53.1867 38.3226 51.4 37.2559 48.68L22.8559 9.8L24.1359 8.36L10.8559 43.08C9.89594 45.48 9.30927 47.48 9.09594 49.08C8.93594 50.68 9.06927 51.9333 9.49594 52.84C9.97594 53.7467 10.7759 54.3867 11.8959 54.76C13.0159 55.1333 14.4026 55.3467 16.0559 55.4V57C14.4559 56.8933 12.8293 56.84 11.1759 56.84C9.57594 56.7867 8.05594 56.76 6.61594 56.76C5.33594 56.76 4.18927 56.7867 3.17594 56.84C2.21594 56.84 1.33594 56.8933 0.535937 57V55.4C1.65594 55.1333 2.77594 54.4667 3.89594 53.4C5.01594 52.3333 6.0826 50.52 7.09594 47.96L25.6559 0.039999C26.0826 0.039999 26.5359 0.039999 27.0159 0.039999C27.4959 0.039999 27.9493 0.039999 28.3759 0.039999ZM36.7759 33.96V35.56H12.9359L13.7359 33.96H36.7759Z" fill="url(#paint0_linear_56_22)"/>
<defs>
<linearGradient id="paint0_linear_56_22" x1="1" y1="23.5" x2="53" y2="23.5" gradientUnits="userSpaceOnUse">
<stop stop-color="#0E21B2"/>
<stop offset="0.15" stop-color="#1438C1"/>
<stop offset="0.3" stop-color="#1950D0"/>
<stop offset="0.45" stop-color="#1E67DF"/>
<stop offset="0.6" stop-color="#237FED"/>
<stop offset="0.75" stop-color="#2FABFF"/>
<stop offset="0.9" stop-color="#2A94FB"/>
<stop offset="1" stop-color="#35C2FF"/>
</linearGradient>
</defs>
</svg>
