<svg width="122" height="54" viewBox="0 0 122 54" fill="none" xmlns="http://www.w3.org/2000/svg">
<path d="M27.6547 26.68C27.6547 23.2133 26.7214 20.52 24.8547 18.6C22.988 16.68 20.3214 15.72 16.8547 15.72C13.8147 15.72 11.2014 16.3867 9.01469 17.72C6.82802 19 5.20135 21.16 4.13469 24.2L0.854688 22.12C2.02802 18.9733 3.97469 16.5467 6.69469 14.84C9.46802 13.08 12.8814 12.2 16.9347 12.2C19.868 12.2 22.428 12.7333 24.6147 13.8C26.8547 14.8133 28.588 16.3333 29.8147 18.36C31.0414 20.3867 31.6547 22.92 31.6547 25.96V45.96C31.6547 48.7867 32.9347 50.2 35.4947 50.2C36.6147 50.2 37.5747 50.0133 38.3747 49.64L38.1347 52.84C37.228 53.32 36.0547 53.56 34.6147 53.56C33.388 53.56 32.2414 53.32 31.1747 52.84C30.108 52.36 29.228 51.56 28.5347 50.44C27.8947 49.32 27.5747 47.8 27.5747 45.88V43.72L28.6947 43.64C28.2147 45.9333 27.148 47.8533 25.4947 49.4C23.8947 50.8933 22.028 52.0133 19.8947 52.76C17.7614 53.4533 15.628 53.8 13.4947 53.8C10.988 53.8 8.74802 53.4 6.77469 52.6C4.80135 51.8 3.25469 50.6533 2.13469 49.16C1.01469 47.6133 0.454688 45.72 0.454688 43.48C0.454688 40.4933 1.44135 38.0933 3.41469 36.28C5.44135 34.4133 8.26802 33.1333 11.8947 32.44L28.4547 29.16V32.52L13.8947 35.4C10.748 36.04 8.40135 36.9733 6.85469 38.2C5.30802 39.4267 4.53469 41.1067 4.53469 43.24C4.53469 45.4267 5.36135 47.16 7.01469 48.44C8.66802 49.6667 11.0147 50.28 14.0547 50.28C15.6014 50.28 17.1747 50.0667 18.7747 49.64C20.3747 49.2133 21.8414 48.5467 23.1747 47.64C24.5614 46.68 25.6547 45.5067 26.4547 44.12C27.2547 42.68 27.6547 40.9467 27.6547 38.92V26.68ZM76.3722 0.199998V53H71.4122L43.4122 11.56L39.4922 4.76H39.4122L39.6522 11.16V53H35.8122V0.199998H40.8522L68.7722 41.56L72.7722 48.44L72.6122 42.04V0.199998H76.3722ZM121.64 0.199998V53H117.64V0.199998H121.64ZM84.9997 0.199998V53H80.9997V0.199998H84.9997ZM119.56 24.28V28.04H83.0797V24.28H119.56Z" fill="url(#paint0_linear_56_22)"/>
<defs>
<linearGradient id="paint0_linear_56_22" x1="-31" y1="19" x2="157" y2="19" gradientUnits="userSpaceOnUse">
<stop stop-color="#0E21B2"/>
<stop offset="0.15" stop-color="#1438C1"/>
<stop offset="0.3" stop-color="#1950D0"/>
<stop offset="0.45" stop-color="#1E67DF"/>
<stop offset="0.6" stop-color="#237FED"/>
<stop offset="0.75" stop-color="#2FABFF"/>
<stop offset="0.9" stop-color="#2A94FB"/>
<stop offset="1" stop-color="#35C2FF"/>
</linearGradient>
</defs>
</svg>
