<svg width="443" height="83" viewBox="0 0 443 83" fill="none" xmlns="http://www.w3.org/2000/svg">
<g clip-path="url(#clip0_56_21)">
<path d="M27.3759 18.04L46.8959 68.28C47.6426 70.2533 48.4959 71.5867 49.4559 72.28C50.4693 72.9733 51.4026 73.3467 52.2559 73.4V75C50.9759 74.8933 49.4559 74.84 47.6959 74.84C45.9893 74.7867 44.2559 74.76 42.4959 74.76C40.2559 74.76 38.1759 74.7867 36.2559 74.84C34.3359 74.84 32.7893 74.8933 31.6159 75V73.4C34.3359 73.2933 36.0426 72.84 36.7359 72.04C37.4826 71.1867 37.3226 69.4 36.2559 66.68L21.8559 27.8L23.1359 26.36L9.85594 61.08C8.89594 63.48 8.30927 65.48 8.09594 67.08C7.93594 68.68 8.06927 69.9333 8.49594 70.84C8.97594 71.7467 9.77594 72.3867 10.8959 72.76C12.0159 73.1333 13.4026 73.3467 15.0559 73.4V75C13.4559 74.8933 11.8293 74.84 10.1759 74.84C8.57594 74.7867 7.05594 74.76 5.61594 74.76C4.33594 74.76 3.18927 74.7867 2.17594 74.84C1.21594 74.84 0.335938 74.8933 -0.464063 75V73.4C0.655938 73.1333 1.77594 72.4667 2.89594 71.4C4.01594 70.3333 5.0826 68.52 6.09594 65.96L24.6559 18.04C25.0826 18.04 25.5359 18.04 26.0159 18.04C26.4959 18.04 26.9493 18.04 27.3759 18.04ZM35.7759 51.96V53.56H11.9359L12.7359 51.96H35.7759Z" fill="url(#paint0_linear_56_21)"/>
<path d="M423.768 13.56C425.421 13.56 426.808 14.0933 427.928 15.16C429.048 16.1733 429.608 17.4533 429.608 19C429.608 20.5467 429.048 21.8533 427.928 22.92C426.808 23.9333 425.421 24.44 423.768 24.44C422.114 24.44 420.728 23.9333 419.608 22.92C418.488 21.8533 417.928 20.5467 417.928 19C417.928 17.4533 418.488 16.1733 419.608 15.16C420.728 14.0933 422.114 13.56 423.768 13.56ZM428.568 32.84V67.56C428.568 69.8 428.994 71.32 429.848 72.12C430.754 72.92 432.248 73.32 434.328 73.32V75C433.421 74.9467 432.008 74.8933 430.088 74.84C428.221 74.7333 426.301 74.68 424.328 74.68C422.461 74.68 420.541 74.7333 418.568 74.84C416.594 74.8933 415.128 74.9467 414.168 75V73.32C416.248 73.32 417.714 72.92 418.568 72.12C419.474 71.32 419.928 69.8 419.928 67.56V42.44C419.928 40.04 419.528 38.28 418.728 37.16C417.928 35.9867 416.408 35.4 414.168 35.4V33.72C415.874 33.88 417.528 33.96 419.128 33.96C420.941 33.96 422.621 33.88 424.168 33.72C425.768 33.5067 427.234 33.2133 428.568 32.84Z" fill="url(#paint1_linear_56_21)"/>
<path d="M86.7797 12.28V66.28C86.7797 68.68 87.1797 70.4667 87.9797 71.64C88.833 72.76 90.353 73.32 92.5397 73.32V75C90.8864 74.84 89.233 74.76 87.5797 74.76C85.7664 74.76 84.0597 74.84 82.4597 75C80.913 75.16 79.473 75.4533 78.1397 75.88V21.88C78.1397 19.48 77.713 17.72 76.8597 16.6C76.0597 15.4267 74.5664 14.84 72.3797 14.84V13.16C74.0864 13.32 75.7397 13.4 77.3397 13.4C79.0997 13.4 80.7797 13.32 82.3797 13.16C83.9797 12.9467 85.4464 12.6533 86.7797 12.28ZM68.7797 32.6C71.1264 32.6 73.2597 33.1067 75.1797 34.12C77.153 35.1333 78.5397 36.84 79.3397 39.24L78.3797 40.12C77.633 38.2 76.5397 36.8133 75.0997 35.96C73.6597 35.0533 72.033 34.6 70.2197 34.6C67.1797 34.6 64.6997 36.2267 62.7797 39.48C60.8597 42.68 59.9264 47.64 59.9797 54.36C59.9797 58.7867 60.353 62.4133 61.0997 65.24C61.8464 68.0133 62.9397 70.0667 64.3797 71.4C65.873 72.7333 67.6597 73.4 69.7397 73.4C71.8197 73.4 73.6864 72.52 75.3397 70.76C77.0464 69 78.0597 66.4667 78.3797 63.16L79.0997 64.84C78.5664 68.4667 77.2864 71.2667 75.2597 73.24C73.233 75.16 70.513 76.12 67.0997 76.12C63.8464 76.12 60.9664 75.3467 58.4597 73.8C56.0064 72.2 54.113 69.8 52.7797 66.6C51.4464 63.3467 50.7797 59.2667 50.7797 54.36C50.7797 49.5067 51.5797 45.48 53.1797 42.28C54.833 39.0267 57.0197 36.6 59.7397 35C62.4597 33.4 65.473 32.6 68.7797 32.6ZM105.893 13.56C107.546 13.56 108.933 14.0933 110.053 15.16C111.173 16.1733 111.733 17.4533 111.733 19C111.733 20.5467 111.173 21.8533 110.053 22.92C108.933 23.9333 107.546 24.44 105.893 24.44C104.239 24.44 102.853 23.9333 101.733 22.92C100.613 21.8533 100.053 20.5467 100.053 19C100.053 17.4533 100.613 16.1733 101.733 15.16C102.853 14.0933 104.239 13.56 105.893 13.56ZM110.693 32.84V67.56C110.693 69.8 111.119 71.32 111.973 72.12C112.879 72.92 114.373 73.32 116.453 73.32V75C115.546 74.9467 114.133 74.8933 112.213 74.84C110.346 74.7333 108.426 74.68 106.453 74.68C104.586 74.68 102.666 74.7333 100.693 74.84C98.7195 74.8933 97.2528 74.9467 96.2928 75V73.32C98.3728 73.32 99.8395 72.92 100.693 72.12C101.599 71.32 102.053 69.8 102.053 67.56V42.44C102.053 40.04 101.653 38.28 100.853 37.16C100.053 35.9867 98.5328 35.4 96.2928 35.4V33.72C97.9995 33.88 99.6528 33.96 101.253 33.96C103.066 33.96 104.746 33.88 106.293 33.72C107.893 33.5067 109.359 33.2133 110.693 32.84ZM145.317 32.6C149.584 32.6 153.131 34.3867 155.957 37.96C158.837 41.48 160.277 46.84 160.277 54.04C160.277 59.1067 159.451 63.2667 157.797 66.52C156.144 69.7733 153.931 72.2 151.157 73.8C148.437 75.3467 145.477 76.12 142.277 76.12C139.771 76.12 137.371 75.5067 135.077 74.28C132.784 73 131.024 71.08 129.797 68.52L131.237 68.92C132.411 70.7333 133.877 72.0933 135.637 73C137.397 73.9067 139.184 74.36 140.997 74.36C144.357 74.36 146.864 72.7333 148.517 69.48C150.224 66.2267 151.077 61.2133 151.077 54.44C151.077 50.0133 150.731 46.3867 150.037 43.56C149.397 40.7333 148.411 38.68 147.077 37.4C145.797 36.0667 144.171 35.4 142.197 35.4C139.904 35.4 137.797 36.3867 135.877 38.36C133.957 40.3333 132.811 43.1867 132.437 46.92L131.637 45.24C132.384 41.24 133.984 38.1467 136.437 35.96C138.944 33.72 141.904 32.6 145.317 32.6ZM132.917 12.36V71.72C132.011 72.04 131.077 72.44 130.117 72.92C129.157 73.4 128.251 73.9333 127.397 74.52C126.544 75.0533 125.744 75.64 124.997 76.28L123.717 75.64C123.931 74.8933 124.064 74.1467 124.117 73.4C124.224 72.6533 124.277 71.88 124.277 71.08V21.96C124.277 19.56 123.851 17.8 122.997 16.68C122.197 15.5067 120.704 14.92 118.517 14.92V13.24C120.224 13.4 121.877 13.48 123.477 13.48C125.237 13.48 126.917 13.4 128.517 13.24C130.117 13.0267 131.584 12.7333 132.917 12.36Z" fill="white"/>
<path d="M214.861 75V73.4C216.674 73.2933 218.034 73.08 218.941 72.76C219.847 72.44 220.434 71.8 220.701 70.84C221.021 69.88 221.181 68.44 221.181 66.52V26.84C221.181 24.8667 221.021 23.4267 220.701 22.52C220.434 21.56 219.821 20.92 218.861 20.6C217.954 20.2267 216.621 20.0133 214.861 19.96V18.36C216.194 18.4133 217.847 18.4667 219.821 18.52C221.847 18.5733 223.847 18.6 225.821 18.6C228.061 18.6 230.141 18.5733 232.061 18.52C233.981 18.4667 235.527 18.4133 236.701 18.36V19.96C234.941 20.0133 233.607 20.2267 232.701 20.6C231.794 20.92 231.181 21.56 230.861 22.52C230.541 23.4267 230.381 24.8667 230.381 26.84V66.52C230.381 68.44 230.541 69.88 230.861 70.84C231.181 71.8 231.794 72.44 232.701 72.76C233.607 73.08 234.941 73.2933 236.701 73.4V75C235.527 74.8933 233.981 74.84 232.061 74.84C230.141 74.7867 228.061 74.76 225.821 74.76C223.847 74.76 221.847 74.7867 219.821 74.84C217.847 74.84 216.194 74.8933 214.861 75ZM181.261 75V73.4C183.074 73.2933 184.434 73.08 185.341 72.76C186.247 72.44 186.834 71.8 187.101 70.84C187.421 69.88 187.581 68.44 187.581 66.52V26.84C187.581 24.8667 187.421 23.4267 187.101 22.52C186.834 21.56 186.221 20.92 185.261 20.6C184.354 20.2267 183.021 20.0133 181.261 19.96V18.36C182.487 18.4133 184.061 18.4667 185.981 18.52C187.954 18.5733 190.061 18.6 192.301 18.6C194.327 18.6 196.301 18.5733 198.221 18.52C200.194 18.4667 201.821 18.4133 203.101 18.36V19.96C201.341 20.0133 200.007 20.2267 199.101 20.6C198.194 20.92 197.581 21.56 197.261 22.52C196.941 23.4267 196.781 24.8667 196.781 26.84V66.52C196.781 68.44 196.941 69.88 197.261 70.84C197.581 71.8 198.194 72.44 199.101 72.76C200.007 73.08 201.341 73.2933 203.101 73.4V75C201.821 74.8933 200.194 74.84 198.221 74.84C196.301 74.7867 194.327 74.76 192.301 74.76C190.061 74.76 187.954 74.7867 185.981 74.84C184.061 74.84 182.487 74.8933 181.261 75ZM193.181 47.32V45.72H224.781V47.32H193.181ZM252.909 75.56C250.669 75.56 248.749 75.1333 247.149 74.28C245.549 73.4267 244.349 72.2533 243.549 70.76C242.749 69.2667 242.349 67.56 242.349 65.64C242.349 63.2933 242.882 61.4 243.949 59.96C245.015 58.4667 246.375 57.2667 248.029 56.36C249.735 55.4533 251.522 54.7067 253.389 54.12C255.309 53.48 257.095 52.8933 258.749 52.36C260.455 51.7733 261.842 51.1067 262.909 50.36C264.029 49.6133 264.589 48.6267 264.589 47.4V41.96C264.589 40.04 264.269 38.52 263.629 37.4C263.042 36.2267 262.215 35.4 261.149 34.92C260.135 34.44 258.909 34.2 257.469 34.2C256.242 34.2 254.935 34.3867 253.549 34.76C252.162 35.08 251.069 35.7467 250.269 36.76C251.442 37.08 252.402 37.72 253.149 38.68C253.949 39.5867 254.349 40.7333 254.349 42.12C254.349 43.6133 253.842 44.7867 252.829 45.64C251.869 46.4933 250.642 46.92 249.149 46.92C247.495 46.92 246.269 46.4133 245.469 45.4C244.669 44.3333 244.269 43.1067 244.269 41.72C244.269 40.28 244.615 39.1067 245.309 38.2C246.055 37.2933 247.015 36.44 248.189 35.64C249.469 34.7867 251.095 34.0667 253.069 33.48C255.095 32.8933 257.335 32.6 259.789 32.6C262.082 32.6 264.055 32.8667 265.709 33.4C267.415 33.88 268.829 34.68 269.949 35.8C271.282 37.0267 272.162 38.5733 272.589 40.44C273.015 42.2533 273.229 44.4667 273.229 47.08V69.16C273.229 70.4933 273.389 71.4533 273.709 72.04C274.082 72.5733 274.669 72.84 275.469 72.84C276.002 72.84 276.509 72.7067 276.989 72.44C277.522 72.1733 278.135 71.7733 278.829 71.24L279.629 72.6C278.509 73.5067 277.362 74.2267 276.189 74.76C275.069 75.2933 273.629 75.56 271.869 75.56C270.162 75.56 268.775 75.2933 267.709 74.76C266.642 74.2267 265.842 73.4533 265.309 72.44C264.829 71.4267 264.589 70.1733 264.589 68.68C263.202 70.92 261.549 72.6267 259.629 73.8C257.709 74.9733 255.469 75.56 252.909 75.56ZM256.749 71.72C258.242 71.72 259.629 71.2933 260.909 70.44C262.242 69.5867 263.469 68.3067 264.589 66.6V50.68C264.002 51.5333 263.149 52.28 262.029 52.92C260.909 53.5067 259.709 54.12 258.429 54.76C257.149 55.4 255.922 56.1467 254.749 57C253.629 57.8 252.695 58.84 251.949 60.12C251.202 61.4 250.829 63.0267 250.829 65C250.829 67.08 251.362 68.7333 252.429 69.96C253.495 71.1333 254.935 71.72 256.749 71.72ZM315.139 33.32L293.059 73.8H300.259C302.393 73.8 304.286 73.3733 305.939 72.52C307.593 71.6667 308.953 70.2533 310.019 68.28C311.086 66.3067 311.726 63.6933 311.939 60.44H313.779C313.779 64.0133 313.806 67 313.859 69.4C313.913 71.8 313.993 73.7733 314.099 75.32C311.699 75.2133 309.219 75.1333 306.659 75.08C304.099 75.0267 301.566 75 299.059 75C296.339 75 293.566 75.0267 290.739 75.08C287.966 75.1867 285.299 75.2933 282.739 75.4L304.819 34.92H297.459C295.166 34.92 293.193 35.3733 291.539 36.28C289.886 37.1333 288.579 38.5467 287.619 40.52C286.713 42.44 286.126 45.0267 285.859 48.28H284.099C284.099 44.6533 284.073 41.6667 284.019 39.32C283.966 36.9733 283.886 35 283.779 33.4C286.126 33.5067 288.579 33.5867 291.139 33.64C293.699 33.6933 296.259 33.72 298.819 33.72C301.486 33.72 304.206 33.6933 306.979 33.64C309.806 33.5333 312.526 33.4267 315.139 33.32ZM357.508 32.84V66.36C357.508 68.76 357.908 70.5467 358.708 71.72C359.561 72.84 361.081 73.4 363.268 73.4V75.08C361.615 74.92 359.961 74.84 358.308 74.84C356.548 74.84 354.868 74.92 353.268 75.08C351.668 75.24 350.201 75.5333 348.868 75.96V67.24C347.535 70.44 345.668 72.7333 343.268 74.12C340.921 75.4533 338.441 76.12 335.828 76.12C333.855 76.12 332.175 75.8267 330.788 75.24C329.401 74.7067 328.255 73.9867 327.348 73.08C326.388 72.0133 325.721 70.6533 325.348 69C324.975 67.2933 324.788 65.16 324.788 62.6V42.44C324.788 40.04 324.388 38.28 323.588 37.16C322.788 35.9867 321.268 35.4 319.028 35.4V33.72C320.735 33.88 322.388 33.96 323.988 33.96C325.748 33.96 327.428 33.88 329.028 33.72C330.628 33.5067 332.095 33.2133 333.428 32.84V64.84C333.428 66.3867 333.535 67.8 333.748 69.08C333.961 70.36 334.468 71.3733 335.268 72.12C336.068 72.8667 337.348 73.24 339.108 73.24C340.975 73.24 342.628 72.68 344.068 71.56C345.561 70.44 346.735 68.92 347.588 67C348.441 65.08 348.868 62.92 348.868 60.52V42.44C348.868 40.04 348.468 38.28 347.668 37.16C346.868 35.9867 345.348 35.4 343.108 35.4V33.72C344.815 33.88 346.468 33.96 348.068 33.96C349.828 33.96 351.508 33.88 353.108 33.72C354.708 33.5067 356.175 33.2133 357.508 32.84ZM380.938 12.28V67.56C380.938 69.8 381.311 71.32 382.058 72.12C382.858 72.92 384.191 73.32 386.057 73.32V75C385.151 74.9467 383.791 74.8933 381.978 74.84C380.218 74.7333 378.431 74.68 376.618 74.68C374.751 74.68 372.831 74.7333 370.858 74.84C368.938 74.8933 367.498 74.9467 366.538 75V73.32C368.618 73.32 370.084 72.92 370.938 72.12C371.844 71.32 372.298 69.8 372.298 67.56V21.88C372.298 19.48 371.871 17.72 371.018 16.6C370.218 15.4267 368.724 14.84 366.538 14.84V13.16C368.244 13.32 369.898 13.4 371.498 13.4C373.258 13.4 374.938 13.32 376.538 13.16C378.138 12.9467 379.604 12.6533 380.938 12.28ZM406.538 33.72V35.32C405.098 35.5333 403.711 36.0133 402.378 36.76C401.044 37.5067 399.738 38.5467 398.458 39.88L388.858 49.96L389.898 47.96L404.378 69.16C405.178 70.28 405.951 71.2133 406.698 71.96C407.444 72.6533 408.378 73.1067 409.498 73.32V75C408.804 74.9467 407.764 74.8933 406.378 74.84C405.044 74.7333 403.711 74.68 402.378 74.68C400.618 74.68 398.831 74.7333 397.018 74.84C395.204 74.8933 393.871 74.9467 393.018 75V73.32C394.084 73.32 394.804 73.0533 395.178 72.52C395.604 71.9867 395.551 71.3467 395.018 70.6L386.218 56.84C385.311 55.56 384.484 54.7333 383.738 54.36C382.991 53.9867 381.924 53.7733 380.538 53.72V52.12C382.084 51.96 383.338 51.6667 384.298 51.24C385.311 50.8133 386.244 50.12 387.098 49.16L393.098 43.08C394.804 41.3733 395.658 39.96 395.658 38.84C395.658 37.6667 395.098 36.8133 393.978 36.28C392.911 35.6933 391.471 35.3733 389.658 35.32V33.72C391.098 33.7733 392.671 33.8533 394.378 33.96C396.138 34.0133 397.604 34.04 398.778 34.04C399.738 34.04 400.698 34.04 401.658 34.04C402.671 33.9867 403.604 33.9333 404.458 33.88C405.311 33.8267 406.004 33.7733 406.538 33.72Z" fill="white"/>
</g>
<defs>
<linearGradient id="paint0_linear_56_21" x1="0" y1="41.5" x2="52" y2="41.5" gradientUnits="userSpaceOnUse">
<stop stop-color="#0E21B2"/>
<stop offset="0.15" stop-color="#1438C1"/>
<stop offset="0.3" stop-color="#1950D0"/>
<stop offset="0.45" stop-color="#1E67DF"/>
<stop offset="0.6" stop-color="#237FED"/>
<stop offset="0.75" stop-color="#2FABFF"/>
<stop offset="0.9" stop-color="#2A94FB"/>
<stop offset="1" stop-color="#35C2FF"/>
</linearGradient>
<linearGradient id="paint1_linear_56_21" x1="412" y1="41.5" x2="436" y2="41.5" gradientUnits="userSpaceOnUse">
<stop stop-color="#35C2FF"/>
<stop offset="0.1" stop-color="#2A94FB"/>
<stop offset="0.25" stop-color="#2FABFF"/>
<stop offset="0.4" stop-color="#237FED"/>
<stop offset="0.55" stop-color="#1E67DF"/>
<stop offset="0.7" stop-color="#1950D0"/>
<stop offset="0.85" stop-color="#1438C1"/>
<stop offset="1" stop-color="#0E21B2"/>
</linearGradient>
<clipPath id="clip0_56_21">
<rect width="443" height="83" fill="white"/>
</clipPath>
</defs>
</svg>
