<svg width="430" height="102" viewBox="0 0 430 102" fill="none" xmlns="http://www.w3.org/2000/svg">
<g clip-path="url(#clip0_62_10)">
<path d="M27.0556 25.04L46.5756 75.28C47.3223 77.2533 48.1756 78.5867 49.1356 79.28C50.149 79.9733 51.0823 80.3467 51.9356 80.4V82C50.6556 81.8933 49.1356 81.84 47.3756 81.84C45.669 81.7867 43.9356 81.76 42.1756 81.76C39.9356 81.76 37.8556 81.7867 35.9356 81.84C34.0156 81.84 32.469 81.8933 31.2956 82V80.4C34.0156 80.2933 35.7223 79.84 36.4156 79.04C37.1623 78.1867 37.0023 76.4 35.9356 73.68L21.5356 34.8L22.8156 33.36L9.53563 68.08C8.57563 70.48 7.98896 72.48 7.77563 74.08C7.61563 75.68 7.74896 76.9333 8.17563 77.84C8.65563 78.7467 9.45563 79.3867 10.5756 79.76C11.6956 80.1333 13.0823 80.3467 14.7356 80.4V82C13.1356 81.8933 11.509 81.84 9.85563 81.84C8.25563 81.7867 6.73563 81.76 5.29562 81.76C4.01563 81.76 2.86896 81.7867 1.85563 81.84C0.895625 81.84 0.015625 81.8933 -0.784375 82V80.4C0.335625 80.1333 1.45563 79.4667 2.57563 78.4C3.69563 77.3333 4.76229 75.52 5.77563 72.96L24.3356 25.04C24.7623 25.04 25.2156 25.04 25.6956 25.04C26.1756 25.04 26.629 25.04 27.0556 25.04ZM35.4556 58.96V60.56H11.6156L12.4156 58.96H35.4556ZM90.9438 19.28V73.28C90.9438 75.68 91.3438 77.4667 92.1438 78.64C92.9971 79.76 94.5171 80.32 96.7038 80.32V82C95.0504 81.84 93.3971 81.76 91.7437 81.76C89.9304 81.76 88.2238 81.84 86.6238 82C85.0771 82.16 83.6371 82.4533 82.3038 82.88V28.88C82.3038 26.48 81.8771 24.72 81.0238 23.6C80.2238 22.4267 78.7304 21.84 76.5438 21.84V20.16C78.2504 20.32 79.9038 20.4 81.5038 20.4C83.2638 20.4 84.9438 20.32 86.5438 20.16C88.1438 19.9467 89.6104 19.6533 90.9438 19.28ZM72.9438 39.6C75.2904 39.6 77.4238 40.1067 79.3438 41.12C81.3171 42.1333 82.7038 43.84 83.5038 46.24L82.5438 47.12C81.7971 45.2 80.7038 43.8133 79.2638 42.96C77.8238 42.0533 76.1971 41.6 74.3838 41.6C71.3438 41.6 68.8638 43.2267 66.9438 46.48C65.0238 49.68 64.0904 54.64 64.1438 61.36C64.1438 65.7867 64.5171 69.4133 65.2638 72.24C66.0104 75.0133 67.1038 77.0667 68.5438 78.4C70.0371 79.7333 71.8238 80.4 73.9038 80.4C75.9838 80.4 77.8504 79.52 79.5038 77.76C81.2104 76 82.2238 73.4667 82.5438 70.16L83.2638 71.84C82.7304 75.4667 81.4504 78.2667 79.4238 80.24C77.3971 82.16 74.6771 83.12 71.2638 83.12C68.0104 83.12 65.1304 82.3467 62.6238 80.8C60.1704 79.2 58.2771 76.8 56.9438 73.6C55.6104 70.3467 54.9438 66.2667 54.9438 61.36C54.9438 56.5067 55.7438 52.48 57.3438 49.28C58.9971 46.0267 61.1838 43.6 63.9038 42C66.6238 40.4 69.6371 39.6 72.9438 39.6ZM110.057 20.56C111.71 20.56 113.097 21.0933 114.217 22.16C115.337 23.1733 115.897 24.4533 115.897 26C115.897 27.5467 115.337 28.8533 114.217 29.92C113.097 30.9333 111.71 31.44 110.057 31.44C108.404 31.44 107.017 30.9333 105.897 29.92C104.777 28.8533 104.217 27.5467 104.217 26C104.217 24.4533 104.777 23.1733 105.897 22.16C107.017 21.0933 108.404 20.56 110.057 20.56ZM114.857 39.84V74.56C114.857 76.8 115.284 78.32 116.137 79.12C117.044 79.92 118.537 80.32 120.617 80.32V82C119.71 81.9467 118.297 81.8933 116.377 81.84C114.51 81.7333 112.59 81.68 110.617 81.68C108.75 81.68 106.83 81.7333 104.857 81.84C102.884 81.8933 101.417 81.9467 100.457 82V80.32C102.537 80.32 104.004 79.92 104.857 79.12C105.764 78.32 106.217 76.8 106.217 74.56V49.44C106.217 47.04 105.817 45.28 105.017 44.16C104.217 42.9867 102.697 42.4 100.457 42.4V40.72C102.164 40.88 103.817 40.96 105.417 40.96C107.23 40.96 108.91 40.88 110.457 40.72C112.057 40.5067 113.524 40.2133 114.857 39.84ZM149.481 39.6C153.748 39.6 157.295 41.3867 160.121 44.96C163.001 48.48 164.441 53.84 164.441 61.04C164.441 66.1067 163.615 70.2667 161.961 73.52C160.308 76.7733 158.095 79.2 155.321 80.8C152.601 82.3467 149.641 83.12 146.441 83.12C143.935 83.12 141.535 82.5067 139.241 81.28C136.948 80 135.188 78.08 133.961 75.52L135.401 75.92C136.575 77.7333 138.041 79.0933 139.801 80C141.561 80.9067 143.348 81.36 145.161 81.36C148.521 81.36 151.028 79.7333 152.681 76.48C154.388 73.2267 155.241 68.2133 155.241 61.44C155.241 57.0133 154.895 53.3867 154.201 50.56C153.561 47.7333 152.575 45.68 151.241 44.4C149.961 43.0667 148.335 42.4 146.361 42.4C144.068 42.4 141.961 43.3867 140.041 45.36C138.121 47.3333 136.975 50.1867 136.601 53.92L135.801 52.24C136.548 48.24 138.148 45.1467 140.601 42.96C143.108 40.72 146.068 39.6 149.481 39.6ZM137.081 19.36V78.72C136.175 79.04 135.241 79.44 134.281 79.92C133.321 80.4 132.415 80.9333 131.561 81.52C130.708 82.0533 129.908 82.64 129.161 83.28L127.881 82.64C128.095 81.8933 128.228 81.1467 128.281 80.4C128.388 79.6533 128.441 78.88 128.441 78.08V28.96C128.441 26.56 128.015 24.8 127.161 23.68C126.361 22.5067 124.868 21.92 122.681 21.92V20.24C124.388 20.4 126.041 20.48 127.641 20.48C129.401 20.48 131.081 20.4 132.681 20.24C134.281 20.0267 135.748 19.7333 137.081 19.36Z" fill="url(#paint0_linear_62_10)"/>
<path d="M210.868 82V80.4C212.682 80.2933 214.042 80.08 214.948 79.76C215.855 79.44 216.442 78.8 216.708 77.84C217.028 76.88 217.188 75.44 217.188 73.52V33.84C217.188 31.8667 217.028 30.4267 216.708 29.52C216.442 28.56 215.828 27.92 214.868 27.6C213.962 27.2267 212.628 27.0133 210.868 26.96V25.36C212.202 25.4133 213.855 25.4667 215.828 25.52C217.855 25.5733 219.855 25.6 221.828 25.6C224.068 25.6 226.148 25.5733 228.068 25.52C229.988 25.4667 231.535 25.4133 232.708 25.36V26.96C230.948 27.0133 229.615 27.2267 228.708 27.6C227.802 27.92 227.188 28.56 226.868 29.52C226.548 30.4267 226.388 31.8667 226.388 33.84V73.52C226.388 75.44 226.548 76.88 226.868 77.84C227.188 78.8 227.802 79.44 228.708 79.76C229.615 80.08 230.948 80.2933 232.708 80.4V82C231.535 81.8933 229.988 81.84 228.068 81.84C226.148 81.7867 224.068 81.76 221.828 81.76C219.855 81.76 217.855 81.7867 215.828 81.84C213.855 81.84 212.202 81.8933 210.868 82ZM177.268 82V80.4C179.082 80.2933 180.442 80.08 181.348 79.76C182.255 79.44 182.842 78.8 183.108 77.84C183.428 76.88 183.588 75.44 183.588 73.52V33.84C183.588 31.8667 183.428 30.4267 183.108 29.52C182.842 28.56 182.228 27.92 181.268 27.6C180.362 27.2267 179.028 27.0133 177.268 26.96V25.36C178.495 25.4133 180.068 25.4667 181.988 25.52C183.962 25.5733 186.068 25.6 188.308 25.6C190.335 25.6 192.308 25.5733 194.228 25.52C196.202 25.4667 197.828 25.4133 199.108 25.36V26.96C197.348 27.0133 196.015 27.2267 195.108 27.6C194.202 27.92 193.588 28.56 193.268 29.52C192.948 30.4267 192.788 31.8667 192.788 33.84V73.52C192.788 75.44 192.948 76.88 193.268 77.84C193.588 78.8 194.202 79.44 195.108 79.76C196.015 80.08 197.348 80.2933 199.108 80.4V82C197.828 81.8933 196.202 81.84 194.228 81.84C192.308 81.7867 190.335 81.76 188.308 81.76C186.068 81.76 183.962 81.7867 181.988 81.84C180.068 81.84 178.495 81.8933 177.268 82ZM189.188 54.32V52.72H220.788V54.32H189.188ZM248.917 82.56C246.677 82.56 244.757 82.1333 243.157 81.28C241.557 80.4267 240.357 79.2533 239.557 77.76C238.757 76.2667 238.357 74.56 238.357 72.64C238.357 70.2933 238.89 68.4 239.957 66.96C241.023 65.4667 242.383 64.2667 244.037 63.36C245.743 62.4533 247.53 61.7067 249.397 61.12C251.317 60.48 253.103 59.8933 254.757 59.36C256.463 58.7733 257.85 58.1067 258.917 57.36C260.037 56.6133 260.597 55.6267 260.597 54.4V48.96C260.597 47.04 260.277 45.52 259.637 44.4C259.05 43.2267 258.223 42.4 257.157 41.92C256.143 41.44 254.917 41.2 253.477 41.2C252.25 41.2 250.943 41.3867 249.557 41.76C248.17 42.08 247.077 42.7467 246.277 43.76C247.45 44.08 248.41 44.72 249.157 45.68C249.957 46.5867 250.357 47.7333 250.357 49.12C250.357 50.6133 249.85 51.7867 248.837 52.64C247.877 53.4933 246.65 53.92 245.157 53.92C243.503 53.92 242.277 53.4133 241.477 52.4C240.677 51.3333 240.277 50.1067 240.277 48.72C240.277 47.28 240.623 46.1067 241.317 45.2C242.063 44.2933 243.023 43.44 244.197 42.64C245.477 41.7867 247.103 41.0667 249.077 40.48C251.103 39.8933 253.343 39.6 255.797 39.6C258.09 39.6 260.063 39.8667 261.717 40.4C263.423 40.88 264.837 41.68 265.957 42.8C267.29 44.0267 268.17 45.5733 268.597 47.44C269.023 49.2533 269.237 51.4667 269.237 54.08V76.16C269.237 77.4933 269.397 78.4533 269.717 79.04C270.09 79.5733 270.677 79.84 271.477 79.84C272.01 79.84 272.517 79.7067 272.997 79.44C273.53 79.1733 274.143 78.7733 274.837 78.24L275.637 79.6C274.517 80.5067 273.37 81.2267 272.197 81.76C271.077 82.2933 269.637 82.56 267.877 82.56C266.17 82.56 264.783 82.2933 263.717 81.76C262.65 81.2267 261.85 80.4533 261.317 79.44C260.837 78.4267 260.597 77.1733 260.597 75.68C259.21 77.92 257.557 79.6267 255.637 80.8C253.717 81.9733 251.477 82.56 248.917 82.56ZM252.757 78.72C254.25 78.72 255.637 78.2933 256.917 77.44C258.25 76.5867 259.477 75.3067 260.597 73.6V57.68C260.01 58.5333 259.157 59.28 258.037 59.92C256.917 60.5067 255.717 61.12 254.437 61.76C253.157 62.4 251.93 63.1467 250.757 64C249.637 64.8 248.703 65.84 247.957 67.12C247.21 68.4 246.837 70.0267 246.837 72C246.837 74.08 247.37 75.7333 248.437 76.96C249.503 78.1333 250.943 78.72 252.757 78.72ZM311.147 40.32L289.067 80.8H296.267C298.401 80.8 300.294 80.3733 301.947 79.52C303.601 78.6667 304.961 77.2533 306.027 75.28C307.094 73.3067 307.734 70.6933 307.947 67.44H309.787C309.787 71.0133 309.814 74 309.867 76.4C309.921 78.8 310.001 80.7733 310.107 82.32C307.707 82.2133 305.227 82.1333 302.667 82.08C300.107 82.0267 297.574 82 295.067 82C292.347 82 289.574 82.0267 286.747 82.08C283.974 82.1867 281.307 82.2933 278.747 82.4L300.827 41.92H293.467C291.174 41.92 289.201 42.3733 287.547 43.28C285.894 44.1333 284.587 45.5467 283.627 47.52C282.721 49.44 282.134 52.0267 281.867 55.28H280.107C280.107 51.6533 280.081 48.6667 280.027 46.32C279.974 43.9733 279.894 42 279.787 40.4C282.134 40.5067 284.587 40.5867 287.147 40.64C289.707 40.6933 292.267 40.72 294.827 40.72C297.494 40.72 300.214 40.6933 302.987 40.64C305.814 40.5333 308.534 40.4267 311.147 40.32ZM353.516 39.84V73.36C353.516 75.76 353.916 77.5467 354.716 78.72C355.569 79.84 357.089 80.4 359.276 80.4V82.08C357.623 81.92 355.969 81.84 354.316 81.84C352.556 81.84 350.876 81.92 349.276 82.08C347.676 82.24 346.209 82.5333 344.876 82.96V74.24C343.543 77.44 341.676 79.7333 339.276 81.12C336.929 82.4533 334.449 83.12 331.836 83.12C329.863 83.12 328.183 82.8267 326.796 82.24C325.409 81.7067 324.263 80.9867 323.356 80.08C322.396 79.0133 321.729 77.6533 321.356 76C320.983 74.2933 320.796 72.16 320.796 69.6V49.44C320.796 47.04 320.396 45.28 319.596 44.16C318.796 42.9867 317.276 42.4 315.036 42.4V40.72C316.743 40.88 318.396 40.96 319.996 40.96C321.756 40.96 323.436 40.88 325.036 40.72C326.636 40.5067 328.103 40.2133 329.436 39.84V71.84C329.436 73.3867 329.543 74.8 329.756 76.08C329.969 77.36 330.476 78.3733 331.276 79.12C332.076 79.8667 333.356 80.24 335.116 80.24C336.983 80.24 338.636 79.68 340.076 78.56C341.569 77.44 342.743 75.92 343.596 74C344.449 72.08 344.876 69.92 344.876 67.52V49.44C344.876 47.04 344.476 45.28 343.676 44.16C342.876 42.9867 341.356 42.4 339.116 42.4V40.72C340.823 40.88 342.476 40.96 344.076 40.96C345.836 40.96 347.516 40.88 349.116 40.72C350.716 40.5067 352.183 40.2133 353.516 39.84ZM376.945 19.28V74.56C376.945 76.8 377.319 78.32 378.065 79.12C378.865 79.92 380.199 80.32 382.065 80.32V82C381.159 81.9467 379.799 81.8933 377.985 81.84C376.225 81.7333 374.439 81.68 372.625 81.68C370.759 81.68 368.839 81.7333 366.865 81.84C364.945 81.8933 363.505 81.9467 362.545 82V80.32C364.625 80.32 366.092 79.92 366.945 79.12C367.852 78.32 368.305 76.8 368.305 74.56V28.88C368.305 26.48 367.879 24.72 367.025 23.6C366.225 22.4267 364.732 21.84 362.545 21.84V20.16C364.252 20.32 365.905 20.4 367.505 20.4C369.265 20.4 370.945 20.32 372.545 20.16C374.145 19.9467 375.612 19.6533 376.945 19.28ZM402.545 40.72V42.32C401.105 42.5333 399.719 43.0133 398.385 43.76C397.052 44.5067 395.745 45.5467 394.465 46.88L384.865 56.96L385.905 54.96L400.385 76.16C401.185 77.28 401.959 78.2133 402.705 78.96C403.452 79.6533 404.385 80.1067 405.505 80.32V82C404.812 81.9467 403.772 81.8933 402.385 81.84C401.052 81.7333 399.719 81.68 398.385 81.68C396.625 81.68 394.839 81.7333 393.025 81.84C391.212 81.8933 389.879 81.9467 389.025 82V80.32C390.092 80.32 390.812 80.0533 391.185 79.52C391.612 78.9867 391.559 78.3467 391.025 77.6L382.225 63.84C381.319 62.56 380.492 61.7333 379.745 61.36C378.999 60.9867 377.932 60.7733 376.545 60.72V59.12C378.092 58.96 379.345 58.6667 380.305 58.24C381.319 57.8133 382.252 57.12 383.105 56.16L389.105 50.08C390.812 48.3733 391.665 46.96 391.665 45.84C391.665 44.6667 391.105 43.8133 389.985 43.28C388.919 42.6933 387.479 42.3733 385.665 42.32V40.72C387.105 40.7733 388.679 40.8533 390.385 40.96C392.145 41.0133 393.612 41.04 394.785 41.04C395.745 41.04 396.705 41.04 397.665 41.04C398.679 40.9867 399.612 40.9333 400.465 40.88C401.319 40.8267 402.012 40.7733 402.545 40.72ZM417.627 20.56C419.281 20.56 420.667 21.0933 421.787 22.16C422.907 23.1733 423.467 24.4533 423.467 26C423.467 27.5467 422.907 28.8533 421.787 29.92C420.667 30.9333 419.281 31.44 417.627 31.44C415.974 31.44 414.587 30.9333 413.467 29.92C412.347 28.8533 411.787 27.5467 411.787 26C411.787 24.4533 412.347 23.1733 413.467 22.16C414.587 21.0933 415.974 20.56 417.627 20.56ZM422.427 39.84V74.56C422.427 76.8 422.854 78.32 423.707 79.12C424.614 79.92 426.107 80.32 428.187 80.32V82C427.281 81.9467 425.867 81.8933 423.947 81.84C422.081 81.7333 420.161 81.68 418.187 81.68C416.321 81.68 414.401 81.7333 412.427 81.84C410.454 81.8933 408.987 81.9467 408.027 82V80.32C410.107 80.32 411.574 79.92 412.427 79.12C413.334 78.32 413.787 76.8 413.787 74.56V49.44C413.787 47.04 413.387 45.28 412.587 44.16C411.787 42.9867 410.267 42.4 408.027 42.4V40.72C409.734 40.88 411.387 40.96 412.987 40.96C414.801 40.96 416.481 40.88 418.027 40.72C419.627 40.5067 421.094 40.2133 422.427 39.84Z" fill="url(#paint1_linear_62_10)"/>
</g>
<defs>
<linearGradient id="paint0_linear_62_10" x1="0" y1="48.5" x2="168" y2="48.5" gradientUnits="userSpaceOnUse">
<stop stop-color="#35C2FF"/>
<stop offset="0.1" stop-color="#2A94FB"/>
<stop offset="0.25" stop-color="#2FABFF"/>
<stop offset="0.4" stop-color="#237FED"/>
<stop offset="0.55" stop-color="#1E67DF"/>
<stop offset="0.7" stop-color="#1950D0"/>
<stop offset="0.85" stop-color="#1438C1"/>
<stop offset="1" stop-color="#0E21B2"/>
</linearGradient>
<linearGradient id="paint1_linear_62_10" x1="174" y1="48.5" x2="430" y2="48.5" gradientUnits="userSpaceOnUse">
<stop stop-color="#0E21B2"/>
<stop offset="0.15" stop-color="#1438C1"/>
<stop offset="0.3" stop-color="#1950D0"/>
<stop offset="0.45" stop-color="#1E67DF"/>
<stop offset="0.6" stop-color="#237FED"/>
<stop offset="0.75" stop-color="#2FABFF"/>
<stop offset="0.9" stop-color="#2A94FB"/>
<stop offset="1" stop-color="#35C2FF"/>
</linearGradient>
<clipPath id="clip0_62_10">
<rect width="430" height="102" fill="white"/>
</clipPath>
</defs>
</svg>
