<svg width="473" height="60" viewBox="0 0 473 60" fill="none" xmlns="http://www.w3.org/2000/svg">
<path d="M27.5922 32.68C27.5922 29.2133 26.6589 26.52 24.7922 24.6C22.9255 22.68 20.2589 21.72 16.7922 21.72C13.7522 21.72 11.1389 22.3867 8.95219 23.72C6.76552 25 5.13885 27.16 4.07219 30.2L0.792188 28.12C1.96552 24.9733 3.91219 22.5467 6.63219 20.84C9.40552 19.08 12.8189 18.2 16.8722 18.2C19.8055 18.2 22.3655 18.7333 24.5522 19.8C26.7922 20.8133 28.5255 22.3333 29.7522 24.36C30.9789 26.3867 31.5922 28.92 31.5922 31.96V51.96C31.5922 54.7867 32.8722 56.2 35.4322 56.2C36.5522 56.2 37.5122 56.0133 38.3122 55.64L38.0722 58.84C37.1655 59.32 35.9922 59.56 34.5522 59.56C33.3255 59.56 32.1789 59.32 31.1122 58.84C30.0455 58.36 29.1655 57.56 28.4722 56.44C27.8322 55.32 27.5122 53.8 27.5122 51.88V49.72L28.6322 49.64C28.1522 51.9333 27.0855 53.8533 25.4322 55.4C23.8322 56.8933 21.9655 58.0133 19.8322 58.76C17.6989 59.4533 15.5655 59.8 13.4322 59.8C10.9255 59.8 8.68552 59.4 6.71219 58.6C4.73885 57.8 3.19219 56.6533 2.07219 55.16C0.952188 53.6133 0.392188 51.72 0.392188 49.48C0.392188 46.4933 1.37885 44.0933 3.35219 42.28C5.37885 40.4133 8.20552 39.1333 11.8322 38.44L28.3922 35.16V38.52L13.8322 41.4C10.6855 42.04 8.33885 42.9733 6.79219 44.2C5.24552 45.4267 4.47219 47.1067 4.47219 49.24C4.47219 51.4267 5.29885 53.16 6.95219 54.44C8.60552 55.6667 10.9522 56.28 13.9922 56.28C15.5389 56.28 17.1122 56.0667 18.7122 55.64C20.3122 55.2133 21.7789 54.5467 23.1122 53.64C24.4989 52.68 25.5922 51.5067 26.3922 50.12C27.1922 48.68 27.5922 46.9467 27.5922 44.92V32.68ZM54.1497 59.8C50.683 59.8 47.563 58.9733 44.7897 57.32C42.0164 55.6667 39.8297 53.2933 38.2297 50.2C36.683 47.0533 35.9097 43.32 35.9097 39C35.9097 34.5733 36.7364 30.8133 38.3897 27.72C40.043 24.6267 42.283 22.28 45.1097 20.68C47.9364 19.0267 51.0564 18.2 54.4697 18.2C58.203 18.2 61.3764 19.1867 63.9897 21.16C66.6564 23.1333 68.443 25.88 69.3497 29.4L68.8697 29.72V0.599998H72.8697V59H69.2697L69.0297 47.88L69.5097 47.72C69.0297 50.28 68.043 52.4667 66.5497 54.28C65.1097 56.0933 63.2964 57.48 61.1097 58.44C58.9764 59.3467 56.6564 59.8 54.1497 59.8ZM54.6297 56.28C57.4564 56.28 59.9364 55.5867 62.0697 54.2C64.203 52.76 65.8564 50.7067 67.0297 48.04C68.2564 45.3733 68.8697 42.2533 68.8697 38.68C68.8697 35.16 68.2564 32.1467 67.0297 29.64C65.8564 27.08 64.203 25.1333 62.0697 23.8C59.9897 22.4133 57.563 21.72 54.7897 21.72C50.203 21.72 46.5764 23.2667 43.9097 26.36C41.243 29.4533 39.9097 33.6667 39.9097 39C39.9097 44.3333 41.2164 48.5467 43.8297 51.64C46.4964 54.7333 50.0964 56.28 54.6297 56.28ZM81.1434 11.24C80.1301 11.24 79.3034 10.9467 78.6634 10.36C78.0768 9.72 77.7834 8.89333 77.7834 7.88C77.7834 6.86666 78.0768 6.06666 78.6634 5.48C79.3034 4.84 80.1301 4.52 81.1434 4.52C82.1568 4.52 82.9568 4.84 83.5434 5.48C84.1834 6.06666 84.5034 6.86666 84.5034 7.88C84.5034 8.89333 84.1834 9.72 83.5434 10.36C82.9568 10.9467 82.1568 11.24 81.1434 11.24ZM83.1434 19V59H79.1434V19H83.1434ZM108.147 59.8C105.693 59.8 103.4 59.3467 101.267 58.44C99.1866 57.5333 97.3999 56.2267 95.9066 54.52C94.4666 52.8133 93.3999 50.8133 92.7066 48.52L93.2666 47.88L92.9466 59H89.3466V0.599998H93.3466V29.72L92.8666 29C93.9332 25.6933 95.8266 23.08 98.5466 21.16C101.32 19.1867 104.52 18.2 108.147 18.2C111.667 18.2 114.787 19.0267 117.507 20.68C120.227 22.3333 122.387 24.7067 123.987 27.8C125.587 30.8933 126.387 34.6267 126.387 39C126.387 43.32 125.587 47.0533 123.987 50.2C122.387 53.2933 120.2 55.6667 117.427 57.32C114.707 58.9733 111.613 59.8 108.147 59.8ZM107.667 56.28C112.2 56.28 115.773 54.7333 118.387 51.64C121.053 48.5467 122.387 44.3333 122.387 39C122.387 33.6667 121.08 29.4533 118.467 26.36C115.853 23.2667 112.28 21.72 107.747 21.72C104.973 21.72 102.493 22.44 100.307 23.88C98.1199 25.2667 96.4132 27.2667 95.1866 29.88C93.9599 32.4933 93.3466 35.56 93.3466 39.08C93.3466 42.6 93.9599 45.6667 95.1866 48.28C96.4132 50.84 98.0932 52.8133 100.227 54.2C102.413 55.5867 104.893 56.28 107.667 56.28ZM171.075 6.2V59H166.115L138.115 17.56L134.195 10.76H134.115L134.355 17.16V59H130.515V6.2H135.555L163.475 47.56L167.475 54.44L167.315 48.04V6.2H171.075ZM194.198 18.2C197.931 18.2 201.211 19.0267 204.038 20.68C206.918 22.3333 209.158 24.7333 210.758 27.88C212.411 30.9733 213.238 34.68 213.238 39C213.238 43.32 212.411 47.0533 210.758 50.2C209.158 53.2933 206.918 55.6667 204.038 57.32C201.211 58.9733 197.931 59.8 194.198 59.8C190.464 59.8 187.158 58.9733 184.278 57.32C181.451 55.6667 179.211 53.2933 177.558 50.2C175.958 47.0533 175.158 43.32 175.158 39C175.158 34.68 175.958 30.9733 177.558 27.88C179.211 24.7333 181.451 22.3333 184.278 20.68C187.158 19.0267 190.464 18.2 194.198 18.2ZM194.198 21.64C191.158 21.64 188.518 22.3333 186.278 23.72C184.038 25.1067 182.278 27.1067 180.998 29.72C179.771 32.28 179.158 35.3733 179.158 39C179.158 42.5733 179.771 45.6667 180.998 48.28C182.278 50.8933 184.038 52.8933 186.278 54.28C188.518 55.6667 191.158 56.36 194.198 56.36C197.238 56.36 199.878 55.6667 202.118 54.28C204.358 52.8933 206.091 50.8933 207.318 48.28C208.598 45.6667 209.238 42.5733 209.238 39C209.238 35.3733 208.598 32.28 207.318 29.72C206.091 27.1067 204.358 25.1067 202.118 23.72C199.878 22.3333 197.238 21.64 194.198 21.64ZM232.995 18.2C236.728 18.2 240.008 19.0267 242.835 20.68C245.715 22.3333 247.955 24.7333 249.555 27.88C251.208 30.9733 252.035 34.68 252.035 39C252.035 43.32 251.208 47.0533 249.555 50.2C247.955 53.2933 245.715 55.6667 242.835 57.32C240.008 58.9733 236.728 59.8 232.995 59.8C229.261 59.8 225.955 58.9733 223.075 57.32C220.248 55.6667 218.008 53.2933 216.355 50.2C214.755 47.0533 213.955 43.32 213.955 39C213.955 34.68 214.755 30.9733 216.355 27.88C218.008 24.7333 220.248 22.3333 223.075 20.68C225.955 19.0267 229.261 18.2 232.995 18.2ZM232.995 21.64C229.955 21.64 227.315 22.3333 225.075 23.72C222.835 25.1067 221.075 27.1067 219.795 29.72C218.568 32.28 217.955 35.3733 217.955 39C217.955 42.5733 218.568 45.6667 219.795 48.28C221.075 50.8933 222.835 52.8933 225.075 54.28C227.315 55.6667 229.955 56.36 232.995 56.36C236.035 56.36 238.675 55.6667 240.915 54.28C243.155 52.8933 244.888 50.8933 246.115 48.28C247.395 45.6667 248.035 42.5733 248.035 39C248.035 35.3733 247.395 32.28 246.115 29.72C244.888 27.1067 243.155 25.1067 240.915 23.72C238.675 22.3333 236.035 21.64 232.995 21.64ZM255.472 59V19H258.832L259.312 27.4C260.325 24.5733 261.952 22.3333 264.192 20.68C266.432 19.0267 269.125 18.2 272.272 18.2C273.338 18.2 274.298 18.3067 275.152 18.52C276.005 18.7333 276.698 19.08 277.232 19.56L276.352 23.08C275.765 22.7067 275.125 22.4133 274.432 22.2C273.738 21.9867 272.698 21.88 271.312 21.88C269.285 21.88 267.365 22.52 265.552 23.8C263.738 25.0267 262.272 26.76 261.152 29C260.032 31.1867 259.472 33.72 259.472 36.6V59H255.472ZM318.608 6.2V59H314.608V6.2H318.608ZM281.968 6.2V59H277.968V6.2H281.968ZM316.528 30.28V34.04H280.048V30.28H316.528ZM350.045 32.68C350.045 29.2133 349.112 26.52 347.245 24.6C345.379 22.68 342.712 21.72 339.245 21.72C336.205 21.72 333.592 22.3867 331.405 23.72C329.219 25 327.592 27.16 326.525 30.2L323.245 28.12C324.419 24.9733 326.365 22.5467 329.085 20.84C331.859 19.08 335.272 18.2 339.325 18.2C342.259 18.2 344.819 18.7333 347.005 19.8C349.245 20.8133 350.979 22.3333 352.205 24.36C353.432 26.3867 354.045 28.92 354.045 31.96V51.96C354.045 54.7867 355.325 56.2 357.885 56.2C359.005 56.2 359.965 56.0133 360.765 55.64L360.525 58.84C359.619 59.32 358.445 59.56 357.005 59.56C355.779 59.56 354.632 59.32 353.565 58.84C352.499 58.36 351.619 57.56 350.925 56.44C350.285 55.32 349.965 53.8 349.965 51.88V49.72L351.085 49.64C350.605 51.9333 349.539 53.8533 347.885 55.4C346.285 56.8933 344.419 58.0133 342.285 58.76C340.152 59.4533 338.019 59.8 335.885 59.8C333.379 59.8 331.139 59.4 329.165 58.6C327.192 57.8 325.645 56.6533 324.525 55.16C323.405 53.6133 322.845 51.72 322.845 49.48C322.845 46.4933 323.832 44.0933 325.805 42.28C327.832 40.4133 330.659 39.1333 334.285 38.44L350.845 35.16V38.52L336.285 41.4C333.139 42.04 330.792 42.9733 329.245 44.2C327.699 45.4267 326.925 47.1067 326.925 49.24C326.925 51.4267 327.752 53.16 329.405 54.44C331.059 55.6667 333.405 56.28 336.445 56.28C337.992 56.28 339.565 56.0667 341.165 55.64C342.765 55.2133 344.232 54.5467 345.565 53.64C346.952 52.68 348.045 51.5067 348.845 50.12C349.645 48.68 350.045 46.9467 350.045 44.92V32.68ZM357.803 59V55.88L381.323 27L385.483 22.36L379.163 22.44H357.563V19H389.963V22.12L367.163 50.28L362.363 55.64L369.563 55.56H390.923V59H357.803ZM407.473 59.8C404.7 59.8 402.22 59.2933 400.033 58.28C397.847 57.2667 396.113 55.6933 394.833 53.56C393.607 51.3733 392.993 48.6533 392.993 45.4V19H396.993V44.44C396.993 48.6 397.98 51.6133 399.953 53.48C401.98 55.3467 404.807 56.28 408.433 56.28C410.567 56.28 412.487 55.9067 414.193 55.16C415.953 54.4133 417.447 53.3733 418.673 52.04C419.9 50.7067 420.833 49.1867 421.473 47.48C422.167 45.7733 422.513 43.9333 422.513 41.96V19H426.513V59H422.913L422.753 50.76C421.58 53.5867 419.66 55.8 416.993 57.4C414.327 59 411.153 59.8 407.473 59.8ZM465.697 19L448.097 35.96L447.137 36.92L434.737 48.92V43.8L460.497 19H465.697ZM436.737 0.599998V59H432.737V0.599998H436.737ZM448.337 33.88L466.337 59H461.457L445.057 36.2L448.337 33.88ZM468.925 11.24C467.911 11.24 467.085 10.9467 466.445 10.36C465.858 9.72 465.565 8.89333 465.565 7.88C465.565 6.86666 465.858 6.06666 466.445 5.48C467.085 4.84 467.911 4.52 468.925 4.52C469.938 4.52 470.738 4.84 471.325 5.48C471.965 6.06666 472.285 6.86666 472.285 7.88C472.285 8.89333 471.965 9.72 471.325 10.36C470.738 10.9467 469.938 11.24 468.925 11.24ZM470.925 19V59H466.925V19H470.925Z" fill="url(#paint0_linear_71_2)"/>
<defs>
<linearGradient id="paint0_linear_71_2" x1="-71" y1="25" x2="545" y2="25" gradientUnits="userSpaceOnUse">
<stop stop-color="#0E21B2"/>
<stop offset="0.15" stop-color="#1438C1"/>
<stop offset="0.3" stop-color="#1950D0"/>
<stop offset="0.45" stop-color="#1E67DF"/>
<stop offset="0.6" stop-color="#237FED"/>
<stop offset="0.75" stop-color="#2FABFF"/>
<stop offset="0.9" stop-color="#2A94FB"/>
<stop offset="1" stop-color="#35C2FF"/>
<animateTransform
  attributeName="gradientTransform"
  type="translate"
  values="0,0; -300,0; 0,0"
  dur="4s"
  repeatCount="indefinite"
  additive="sum"
/>
</linearGradient>
</defs>
</svg>
