<svg width="405" height="63" viewBox="0 0 405 63" fill="none" xmlns="http://www.w3.org/2000/svg">
<path d="M27.84 4.8L47.36 55.04C48.1067 57.0133 48.96 58.3467 49.92 59.04C50.9333 59.7333 51.8667 60.1067 52.72 60.16V61.76C51.44 61.6533 49.92 61.6 48.16 61.6C46.4533 61.5467 44.72 61.52 42.96 61.52C40.72 61.52 38.64 61.5467 36.72 61.6C34.8 61.6 33.2533 61.6533 32.08 61.76V60.16C34.8 60.0533 36.5067 59.6 37.2 58.8C37.9467 57.9467 37.7867 56.16 36.72 53.44L22.32 14.56L23.6 13.12L10.32 47.84C9.36 50.24 8.77333 52.24 8.56 53.84C8.4 55.44 8.53333 56.6933 8.96 57.6C9.44 58.5067 10.24 59.1467 11.36 59.52C12.48 59.8933 13.8667 60.1067 15.52 60.16V61.76C13.92 61.6533 12.2933 61.6 10.64 61.6C9.04 61.5467 7.52 61.52 6.08 61.52C4.8 61.52 3.65333 61.5467 2.64 61.6C1.68 61.6 0.8 61.6533 0 61.76V60.16C1.12 59.8933 2.24 59.2267 3.36 58.16C4.48 57.0933 5.54667 55.28 6.56 52.72L25.12 4.8C25.5467 4.8 26 4.8 26.48 4.8C26.96 4.8 27.4133 4.8 27.84 4.8ZM36.24 38.72V40.32H12.4L13.2 38.72H36.24Z" fill="#0075E5"/>
<path d="M87.7681 5.312V53.912C87.7681 56.072 88.1281 57.68 88.8481 58.736C89.6161 59.744 90.9841 60.248 92.9521 60.248V61.76C91.4641 61.616 89.9761 61.544 88.4881 61.544C86.8561 61.544 85.3201 61.616 83.8801 61.76C82.4881 61.904 81.1921 62.168 79.9921 62.552V13.952C79.9921 11.792 79.6081 10.208 78.8401 9.2C78.1201 8.144 76.7761 7.616 74.8081 7.616V6.104C76.3441 6.248 77.8321 6.32 79.2721 6.32C80.8561 6.32 82.3681 6.248 83.8081 6.104C85.2481 5.912 86.5681 5.648 87.7681 5.312ZM71.5681 23.6C73.6801 23.6 75.6001 24.056 77.3281 24.968C79.1041 25.88 80.3521 27.416 81.0721 29.576L80.2081 30.368C79.5361 28.64 78.5521 27.392 77.2561 26.624C75.9601 25.808 74.4961 25.4 72.8641 25.4C70.1281 25.4 67.8961 26.864 66.1681 29.792C64.4401 32.672 63.6001 37.136 63.6481 43.184C63.6481 47.168 63.9841 50.432 64.6561 52.976C65.3281 55.472 66.3121 57.32 67.6081 58.52C68.9521 59.72 70.5601 60.32 72.4321 60.32C74.3041 60.32 75.9841 59.528 77.4721 57.944C79.0081 56.36 79.9201 54.08 80.2081 51.104L80.8561 52.616C80.3761 55.88 79.2241 58.4 77.4001 60.176C75.5761 61.904 73.1281 62.768 70.0561 62.768C67.1281 62.768 64.5361 62.072 62.2801 60.68C60.0721 59.24 58.3681 57.08 57.1681 54.2C55.9681 51.272 55.3681 47.6 55.3681 43.184C55.3681 38.816 56.0881 35.192 57.5281 32.312C59.0161 29.384 60.9841 27.2 63.4321 25.76C65.8801 24.32 68.5921 23.6 71.5681 23.6Z" fill="white"/>
<path d="M104.97 6.464C106.458 6.464 107.706 6.944 108.714 7.904C109.722 8.816 110.226 9.968 110.226 11.36C110.226 12.752 109.722 13.928 108.714 14.888C107.706 15.8 106.458 16.256 104.97 16.256C103.482 16.256 102.234 15.8 101.226 14.888C100.218 13.928 99.7139 12.752 99.7139 11.36C99.7139 9.968 100.218 8.816 101.226 7.904C102.234 6.944 103.482 6.464 104.97 6.464ZM109.29 23.816V55.064C109.29 57.08 109.674 58.448 110.442 59.168C111.258 59.888 112.602 60.248 114.474 60.248V61.76C113.658 61.712 112.386 61.664 110.658 61.616C108.978 61.52 107.25 61.472 105.474 61.472C103.794 61.472 102.066 61.52 100.29 61.616C98.5139 61.664 97.1939 61.712 96.3299 61.76V60.248C98.2019 60.248 99.5219 59.888 100.29 59.168C101.106 58.448 101.514 57.08 101.514 55.064V32.456C101.514 30.296 101.154 28.712 100.434 27.704C99.7139 26.648 98.3459 26.12 96.3299 26.12V24.608C97.8659 24.752 99.3539 24.824 100.794 24.824C102.426 24.824 103.938 24.752 105.33 24.608C106.77 24.416 108.09 24.152 109.29 23.816Z" fill="white"/>
<path d="M140.452 23.6C144.292 23.6 147.484 25.208 150.028 28.424C152.62 31.592 153.916 36.416 153.916 42.896C153.916 47.456 153.172 51.2 151.684 54.128C150.196 57.056 148.204 59.24 145.708 60.68C143.26 62.072 140.596 62.768 137.716 62.768C135.46 62.768 133.3 62.216 131.236 61.112C129.172 59.96 127.588 58.232 126.484 55.928L127.78 56.288C128.836 57.92 130.156 59.144 131.74 59.96C133.324 60.776 134.932 61.184 136.564 61.184C139.588 61.184 141.844 59.72 143.332 56.792C144.868 53.864 145.636 49.352 145.636 43.256C145.636 39.272 145.324 36.008 144.7 33.464C144.124 30.92 143.236 29.072 142.036 27.92C140.884 26.72 139.42 26.12 137.644 26.12C135.58 26.12 133.684 27.008 131.956 28.784C130.228 30.56 129.196 33.128 128.86 36.488L128.14 34.976C128.812 31.376 130.252 28.592 132.46 26.624C134.716 24.608 137.38 23.6 140.452 23.6ZM129.292 5.384V58.808C128.476 59.096 127.636 59.456 126.772 59.888C125.908 60.32 125.092 60.8 124.324 61.328C123.556 61.808 122.836 62.336 122.164 62.912L121.012 62.336C121.204 61.664 121.324 60.992 121.372 60.32C121.468 59.648 121.516 58.952 121.516 58.232V14.024C121.516 11.864 121.132 10.28 120.364 9.272C119.644 8.216 118.3 7.688 116.332 7.688V6.176C117.868 6.32 119.356 6.392 120.796 6.392C122.38 6.392 123.892 6.32 125.332 6.176C126.772 5.984 128.092 5.72 129.292 5.384Z" fill="white"/>
<path d="M203.444 61.76V60.32C205.028 60.224 206.204 60.032 206.972 59.744C207.788 59.456 208.316 58.88 208.556 58.016C208.844 57.152 208.988 55.856 208.988 54.128V18.416C208.988 16.64 208.844 15.344 208.556 14.528C208.316 13.664 207.788 13.088 206.972 12.8C206.204 12.464 205.028 12.272 203.444 12.224V10.784C204.74 10.832 206.348 10.88 208.268 10.928C210.188 10.976 212.108 11 214.028 11C216.14 11 218.108 10.976 219.932 10.928C221.804 10.88 223.292 10.832 224.396 10.784V12.224C222.86 12.272 221.684 12.464 220.868 12.8C220.1 13.088 219.572 13.664 219.284 14.528C218.996 15.344 218.852 16.64 218.852 18.416V54.128C218.852 55.856 218.996 57.152 219.284 58.016C219.572 58.88 220.1 59.456 220.868 59.744C221.684 60.032 222.86 60.224 224.396 60.32V61.76C223.292 61.664 221.804 61.616 219.932 61.616C218.108 61.568 216.14 61.544 214.028 61.544C212.108 61.544 210.188 61.568 208.268 61.616C206.348 61.616 204.74 61.664 203.444 61.76ZM173.06 61.76V60.32C174.644 60.224 175.82 60.032 176.588 59.744C177.404 59.456 177.932 58.88 178.172 58.016C178.46 57.152 178.604 55.856 178.604 54.128V18.416C178.604 16.64 178.46 15.344 178.172 14.528C177.932 13.664 177.404 13.088 176.588 12.8C175.82 12.464 174.644 12.272 173.06 12.224V10.784C174.26 10.832 175.796 10.88 177.668 10.928C179.54 10.976 181.556 11 183.716 11C185.636 11 187.532 10.976 189.404 10.928C191.276 10.88 192.812 10.832 194.012 10.784V12.224C192.476 12.272 191.3 12.464 190.484 12.8C189.716 13.088 189.188 13.664 188.9 14.528C188.612 15.344 188.468 16.64 188.468 18.416V54.128C188.468 55.856 188.612 57.152 188.9 58.016C189.188 58.88 189.716 59.456 190.484 59.744C191.3 60.032 192.476 60.224 194.012 60.32V61.76C192.812 61.664 191.276 61.616 189.404 61.616C187.532 61.568 185.636 61.544 183.716 61.544C181.556 61.544 179.54 61.568 177.668 61.616C175.796 61.616 174.26 61.664 173.06 61.76ZM184.508 36.848V35.408H212.948V36.848H184.508Z" fill="white"/>
<path d="M238.528 62.264C236.464 62.264 234.712 61.88 233.272 61.112C231.832 60.296 230.752 59.216 230.032 57.872C229.312 56.48 228.952 54.944 228.952 53.264C228.952 51.2 229.432 49.52 230.392 48.224C231.352 46.88 232.576 45.824 234.064 45.056C235.6 44.24 237.208 43.568 238.888 43.04C240.568 42.464 242.152 41.936 243.64 41.456C245.128 40.928 246.352 40.328 247.312 39.656C248.272 38.984 248.752 38.096 248.752 36.992V31.736C248.752 30.2 248.512 28.952 248.032 27.992C247.6 26.984 246.928 26.24 246.016 25.76C245.152 25.232 244.048 24.968 242.704 24.968C241.696 24.968 240.64 25.112 239.536 25.4C238.432 25.688 237.52 26.24 236.8 27.056C238.048 27.392 239.008 28.016 239.68 28.928C240.4 29.84 240.76 30.944 240.76 32.24C240.76 33.728 240.256 34.904 239.248 35.768C238.288 36.584 237.064 36.992 235.576 36.992C233.992 36.992 232.792 36.488 231.976 35.48C231.16 34.472 230.752 33.296 230.752 31.952C230.752 30.608 231.088 29.504 231.76 28.64C232.432 27.728 233.368 26.912 234.568 26.192C235.768 25.376 237.304 24.728 239.176 24.248C241.048 23.768 243.088 23.528 245.296 23.528C247.408 23.528 249.28 23.768 250.912 24.248C252.544 24.68 253.936 25.472 255.088 26.624C256.24 27.728 256.984 29.096 257.32 30.728C257.656 32.36 257.824 34.352 257.824 36.704V56.432C257.824 57.632 257.968 58.496 258.256 59.024C258.544 59.504 259 59.744 259.624 59.744C260.104 59.744 260.56 59.624 260.992 59.384C261.424 59.144 261.904 58.808 262.432 58.376L263.224 59.6C262.168 60.416 261.064 61.064 259.912 61.544C258.76 62.024 257.368 62.264 255.736 62.264C254.056 62.264 252.712 62.024 251.704 61.544C250.744 61.064 250.024 60.368 249.544 59.456C249.112 58.544 248.872 57.464 248.824 56.216C247.672 58.136 246.256 59.624 244.576 60.68C242.896 61.736 240.88 62.264 238.528 62.264ZM242.848 58.232C244 58.232 245.056 57.92 246.016 57.296C247.024 56.672 247.936 55.736 248.752 54.488V39.944C248.272 40.664 247.576 41.312 246.664 41.888C245.8 42.464 244.864 43.04 243.856 43.616C242.848 44.192 241.888 44.864 240.976 45.632C240.112 46.352 239.368 47.264 238.744 48.368C238.168 49.424 237.88 50.792 237.88 52.472C237.88 54.344 238.336 55.784 239.248 56.792C240.16 57.752 241.36 58.232 242.848 58.232Z" fill="white"/>
<path d="M295.245 24.248L276.309 60.68H281.493C283.365 60.68 285.069 60.296 286.605 59.528C288.189 58.712 289.509 57.392 290.565 55.568C291.621 53.744 292.245 51.296 292.437 48.224H294.021C294.021 51.584 294.045 54.368 294.093 56.576C294.141 58.784 294.213 60.608 294.309 62.048C292.149 61.952 289.893 61.88 287.541 61.832C285.237 61.784 282.933 61.76 280.629 61.76C278.181 61.76 275.685 61.784 273.141 61.832C270.597 61.928 268.149 62.024 265.797 62.12L284.733 25.688H279.405C277.437 25.688 275.661 26.096 274.077 26.912C272.541 27.68 271.293 28.976 270.333 30.8C269.421 32.576 268.845 35.024 268.605 38.144H267.021C267.021 34.736 266.997 31.952 266.949 29.792C266.901 27.584 266.829 25.76 266.733 24.32C268.893 24.416 271.125 24.488 273.429 24.536C275.781 24.584 278.109 24.608 280.413 24.608C282.861 24.608 285.357 24.584 287.901 24.536C290.445 24.44 292.893 24.344 295.245 24.248Z" fill="white"/>
<path d="M334.171 23.744V53.984C334.171 56.144 334.531 57.752 335.251 58.808C335.971 59.816 337.243 60.32 339.067 60.32V61.832C337.579 61.688 336.091 61.616 334.603 61.616C332.827 61.616 331.123 61.688 329.491 61.832C327.907 61.976 326.443 62.24 325.099 62.624V55.424C323.899 58.064 322.243 59.96 320.131 61.112C318.067 62.216 315.835 62.768 313.435 62.768C311.563 62.768 309.979 62.504 308.683 61.976C307.435 61.496 306.427 60.824 305.659 59.96C304.843 59.048 304.267 57.848 303.931 56.36C303.595 54.872 303.427 52.952 303.427 50.6V32.384C303.427 30.224 303.067 28.64 302.347 27.632C301.675 26.576 300.403 26.048 298.531 26.048V24.536C300.067 24.68 301.555 24.752 302.995 24.752C304.771 24.752 306.451 24.68 308.035 24.536C309.667 24.344 311.155 24.08 312.499 23.744V53.12C312.499 54.416 312.595 55.568 312.787 56.576C313.027 57.584 313.483 58.4 314.155 59.024C314.827 59.6 315.835 59.888 317.179 59.888C318.667 59.888 320.011 59.456 321.211 58.592C322.411 57.728 323.347 56.552 324.019 55.064C324.739 53.576 325.099 51.896 325.099 50.024V32.384C325.099 30.224 324.739 28.64 324.019 27.632C323.347 26.576 322.075 26.048 320.203 26.048V24.536C321.739 24.68 323.227 24.752 324.667 24.752C326.443 24.752 328.123 24.68 329.707 24.536C331.339 24.344 332.827 24.08 334.171 23.744Z" fill="white"/>
<path d="M355.82 5.384V55.064C355.82 57.08 356.156 58.448 356.828 59.168C357.5 59.888 358.652 60.248 360.284 60.248V61.76C359.468 61.712 358.22 61.664 356.54 61.616C354.86 61.52 353.156 61.472 351.428 61.472C349.652 61.472 347.828 61.52 345.956 61.616C344.132 61.664 342.764 61.712 341.852 61.76V60.248C343.628 60.248 344.876 59.888 345.596 59.168C346.364 58.448 346.748 57.08 346.748 55.064V14.024C346.748 11.864 346.388 10.28 345.668 9.272C344.996 8.216 343.724 7.688 341.852 7.688V6.176C343.388 6.32 344.876 6.392 346.316 6.392C348.14 6.392 349.844 6.32 351.428 6.176C353.012 5.984 354.476 5.72 355.82 5.384ZM379.148 24.536V25.976C377.708 26.264 376.316 26.816 374.972 27.632C373.628 28.4 372.308 29.48 371.012 30.872L363.884 38.288L364.676 36.704L377.348 56.504C378.02 57.464 378.644 58.28 379.22 58.952C379.844 59.576 380.612 60.008 381.524 60.248V61.76C380.9 61.712 379.916 61.664 378.572 61.616C377.228 61.52 375.884 61.472 374.54 61.472C372.908 61.472 371.228 61.52 369.5 61.616C367.82 61.664 366.548 61.712 365.684 61.76V60.248C366.644 60.248 367.292 60.032 367.628 59.6C368.012 59.12 367.964 58.52 367.484 57.8L359.996 45.2C359.324 44.144 358.676 43.472 358.052 43.184C357.428 42.848 356.588 42.68 355.532 42.68V41.24C356.732 41.144 357.716 40.928 358.484 40.592C359.3 40.256 360.068 39.728 360.788 39.008L366.188 33.608C367.772 32.024 368.564 30.68 368.564 29.576C368.612 28.472 368.108 27.632 367.052 27.056C366.044 26.432 364.724 26.072 363.092 25.976V24.536C364.388 24.584 365.828 24.656 367.412 24.752C368.996 24.8 370.34 24.824 371.444 24.824C372.308 24.824 373.22 24.824 374.18 24.824C375.188 24.776 376.124 24.728 376.988 24.68C377.9 24.632 378.62 24.584 379.148 24.536Z" fill="white"/>
<path d="M393.827 0C395.747 0 397.321 0.533333 398.547 1.6C399.774 2.66666 400.387 4.08 400.387 5.84C400.387 7.6 399.774 9.01333 398.547 10.08C397.321 11.1467 395.747 11.68 393.827 11.68C391.907 11.68 390.334 11.1467 389.107 10.08C387.881 9.01333 387.267 7.6 387.267 5.84C387.267 4.08 387.881 2.66666 389.107 1.6C390.334 0.533333 391.907 0 393.827 0ZM399.427 19.52V54.32C399.427 56.56 399.827 58.08 400.627 58.88C401.481 59.68 402.894 60.08 404.867 60.08V61.76C403.907 61.7067 402.441 61.6533 400.467 61.6C398.494 61.4933 396.494 61.44 394.467 61.44C392.494 61.44 390.494 61.4933 388.467 61.6C386.441 61.6533 384.921 61.7067 383.907 61.76V60.08C385.881 60.08 387.267 59.68 388.067 58.88C388.921 58.08 389.347 56.56 389.347 54.32V29.2C389.347 26.7467 388.947 24.96 388.147 23.84C387.401 22.6667 385.987 22.08 383.907 22.08V20.4C385.614 20.56 387.267 20.64 388.867 20.64C390.841 20.64 392.707 20.56 394.467 20.4C396.281 20.1867 397.934 19.8933 399.427 19.52Z" fill="#0075E5"/>
</svg>
