<svg version="1.1" id="Layer_1" xmlns:x="ns_extend;" xmlns:i="ns_ai;" xmlns:graph="ns_graphs;" xmlns="http://www.w3.org/2000/svg" xmlns:xlink="http://www.w3.org/1999/xlink" x="0px" y="0px" viewBox="0 0 156 46" style="enable-background:new 0 0 156 46;" xml:space="preserve">
 <style type="text/css">
  .st0{filter:url(#Adobe_OpacityMaskFilter);}
	.st1{fill-rule:evenodd;clip-rule:evenodd;fill:#FFFFFF;}
	.st2{mask:url(#mask-2_1_);fill-rule:evenodd;clip-rule:evenodd;fill:#FFFFFF;}
 </style>
 <metadata>
  <sfw xmlns="ns_sfw;">
   <slices>
   </slices>
   <sliceSourceBounds bottomLeftOrigin="true" height="46" width="156" x="82.8" y="-211.7">
   </sliceSourceBounds>
  </sfw>
 </metadata>
 <g id="homepage">
  <g id="Artboard" transform="translate(-29.000000, -24.000000)">
   <g id="logo" transform="translate(29.000000, 24.000000)">
    <g id="Clip-2">
    </g>
    <defs>
     <filter id="Adobe_OpacityMaskFilter" filterUnits="userSpaceOnUse" x="0" y="0" width="156" height="46">
      <feColorMatrix type="matrix" values="1 0 0 0 0  0 1 0 0 0  0 0 1 0 0  0 0 0 1 0">
      </feColorMatrix>
     </filter>
    </defs>
    <mask maskUnits="userSpaceOnUse" x="0" y="0" width="156" height="46" id="mask-2_1_">
     <g class="st0">
      <polygon id="path-1_1_" class="st1" points="0,0 156,0 156,46 0,46 					">
      </polygon>
     </g>
    </mask>
    <path id="Fill-1" class="st2" d="M93.9,28.9l7.3-2.9c7.2-2.9,13.8-6.5,13.8-14.1c0-7.5-5.9-11.8-14.9-11.8
				C89.4,0,82.6,6.3,81,15.5h9.6c1-4.5,4.5-7.4,9.2-7.4c4,0,6.1,1.6,6.1,4.4c0,3.1-2.9,4.4-9,7.1l-17.7,8l-1.5,7.9h34.2l1.4-8h-9.2
				l-10.1,2.2V28.9z M40,19.5c0,10.1,7.8,16.7,17.2,16.7c8.6,0,17.1-5.6,19-14.1h-9.4c-1.5,3.3-5.5,5.6-9.3,5.6
				c-4.7,0-8.3-3.4-8.3-8.5c0-5.6,4.6-10.7,10.5-10.7c4.3,0,7.7,2.7,8.1,7h9.4C76.9,5.5,68.5,0,59.9,0C49.2,0,40,8.9,40,19.5
				L40,19.5z M16.2,28.9l7.3-2.9c7.2-2.9,13.8-6.5,13.8-14.1C37.3,4.4,31.4,0,22.4,0C11.7,0,4.8,6.3,3.3,15.5h9.6
				c1-4.5,4.5-7.4,9.2-7.4c4,0,6.1,1.6,6.1,4.4c0,3.1-2.9,4.4-9,7.1l-17.7,8L0,35.5h34.2l1.4-8h-9.2l-10.1,2.2V28.9z M125.9,30.4
				c2.4,3.8,6.5,5.9,11.3,5.9c9.7,0,18.8-8.5,18.8-20.2c0-9.9-6.2-16-13.6-16c-5.6,0-10,3.2-13,8.4h-1l2.5-6.1l0.3-1.5h-9l-8,45.2h9
				L125.9,30.4z M127.9,19.1c0-5.8,4.8-10.7,10.5-10.7c4.8,0,8.4,3.6,8.4,8.6c0,5.9-4.7,10.7-10.2,10.7
				C131.8,27.7,127.9,24.3,127.9,19.1L127.9,19.1z">
    </path>
   </g>
  </g>
 </g>
</svg>