<svg id="Layer_1" data-name="Layer 1" xmlns="http://www.w3.org/2000/svg" viewBox="0 0 81.8 30"><defs><style>.cls-1{fill:#3784f4;}</style></defs><title>Logo-05</title><path class="cls-1" d="M.22,1.47H8.16c3.73,0,7.79.78,7.79,5.42a4.8,4.8,0,0,1-3.67,4.69v.06a5.1,5.1,0,0,1,4.66,5.2c0,4.45-4.21,5.93-8,5.93H.22ZM4.91,10h3.4c1.44,0,2.95-.6,2.95-2.31S9.57,5.44,8.1,5.44H4.91Zm0,8.82H9.12c1.47,0,3.13-.63,3.13-2.5S10,14,8.46,14H4.91Z"/><path class="cls-1" d="M21.45.93a2.62,2.62,0,1,1-2.61,2.62A2.62,2.62,0,0,1,21.45.93ZM19.2,8.15h4.51V22.77H19.2Z"/><path class="cls-1" d="M27,0h4.51V22.77H27Z"/><path class="cls-1" d="M34.84,0h4.51V22.77H34.84Z"/><path class="cls-1" d="M43,8.15h4.15v1.92h.06a5.67,5.67,0,0,1,4.48-2.28c4.34,0,7.19,3.13,7.19,7.55,0,4.06-2.52,7.79-6.67,7.79a5.45,5.45,0,0,1-4.64-1.93h-.06v8.43H43Zm7.76,11a3.42,3.42,0,0,0,3.61-3.7,3.61,3.61,0,1,0-7.22,0A3.42,3.42,0,0,0,50.78,19.16Z"/><path class="cls-1" d="M61.61,0h4.51V22.77H61.61Z"/><path class="cls-1" d="M68.8,18.26l7.58-6.5H69V8.15H81.62v4.33l-8,6.68H81.8v3.61h-13Z"/></svg>